Coordinates
version=1
nRows=27
nColumns=38
inDegrees=no

Units are S.I. units (second, meters, Newtons, ...)
If the header above contains a line with 'inDegrees', this indicates whether rotational values are in degrees (yes) or radians (no).

endheader
time	pelvis_tilt	pelvis_list	pelvis_rotation	pelvis_tx	pelvis_ty	pelvis_tz	hip_flexion_r	hip_adduction_r	hip_rotation_r	knee_angle_r	ankle_angle_r	subtalar_angle_r	mtp_angle_r	hip_flexion_l	hip_adduction_l	hip_rotation_l	knee_angle_l	ankle_angle_l	subtalar_angle_l	mtp_angle_l	lumbar_extension	lumbar_bending	lumbar_rotation	arm_flex_r	arm_add_r	arm_rot_r	elbow_flex_r	pro_sup_r	wrist_flex_r	wrist_dev_r	arm_flex_l	arm_add_l	arm_rot_l	elbow_flex_l	pro_sup_l	wrist_flex_l	wrist_dev_l
1.32	-0.176644	1.29419	-1.42357	0.653862	1.11247	1.02064	0.312695	0.109609	-0.0510353	0.564487	-0.185948	0	0	-0.404169	-0.0636713	-0.342799	0.393302	-0.106727	0	0	-0.443625	0.221151	0.322545	-0.217092	-0.451985	-0.279546	1.75652	0.670674	0	0	0.467246	-0.378106	0.461427	1.00858	0.671193	0	0
1.33	-0.168782	1.29851	-1.4265	0.654087	1.10201	1.01866	0.303359	0.103659	-0.0594645	0.528871	-0.187794	0	0	-0.406522	-0.0645689	-0.342043	0.402711	-0.101786	0	0	-0.437178	0.221039	0.320123	-0.219157	-0.451334	-0.282203	1.75614	0.671435	0	0	0.466999	-0.376403	0.461788	1.00807	0.673234	0	0
1.34	-0.162513	1.30174	-1.42764	0.654239	1.09157	1.01677	0.293158	0.0990794	-0.0651889	0.499728	-0.187552	0	0	-0.408862	-0.0664217	-0.341335	0.414537	-0.0965893	0	0	-0.432233	0.221568	0.317972	-0.220876	-0.450807	-0.285109	1.75589	0.672674	0	0	0.467034	-0.374354	0.46179	1.0075	0.675347	0	0
1.35	-0.157931	1.30376	-1.42709	0.65432	1.08112	1.01502	0.282375	0.095608	-0.0692748	0.477826	-0.185628	0	0	-0.411724	-0.0690646	-0.34104	0.428277	-0.0913217	0	0	-0.428741	0.222843	0.315562	-0.221679	-0.450721	-0.287165	1.75534	0.674327	0	0	0.466812	-0.372361	0.461037	1.00696	0.677331	0	0
1.36	-0.154499	1.30412	-1.42539	0.654338	1.07062	1.01346	0.271202	0.0930009	-0.0735395	0.465035	-0.181907	0	0	-0.415548	-0.0725054	-0.341371	0.444022	-0.0865122	0	0	-0.427363	0.224783	0.313202	-0.221885	-0.451201	-0.288591	1.75474	0.676006	0	0	0.466534	-0.370368	0.459705	1.0066	0.679559	0	0
1.37	-0.14763	1.30245	-1.42737	0.654137	1.06017	1.01229	0.258876	0.0903716	-0.0769369	0.460177	-0.178314	0	0	-0.41866	-0.0764305	-0.342095	0.466177	-0.083739	0	0	-0.428977	0.225639	0.310881	-0.220979	-0.45158	-0.289306	1.75354	0.677471	0	0	0.466813	-0.368688	0.458222	1.00623	0.681485	0	0
1.38	-0.1428	1.30007	-1.42759	0.653961	1.04959	1.0111	0.246905	0.0883408	-0.0807118	0.46198	-0.175467	0	0	-0.423307	-0.0801076	-0.340921	0.485826	-0.0816005	0	0	-0.431238	0.227454	0.308704	-0.219923	-0.452528	-0.289627	1.75251	0.679137	0	0	0.466718	-0.367179	0.456664	1.00614	0.683364	0	0
1.39	-0.136366	1.29704	-1.42964	0.653648	1.03885	1.00996	0.23527	0.0857309	-0.0864984	0.470962	-0.174097	0	0	-0.427965	-0.0835478	-0.337852	0.506904	-0.0800466	0	0	-0.434087	0.228814	0.306465	-0.218887	-0.45348	-0.289571	1.75168	0.680602	0	0	0.466543	-0.366108	0.455193	1.00609	0.685432	0	0
1.4	-0.128208	1.29376	-1.43331	0.6532	1.02793	1.00879	0.223478	0.0826802	-0.096195	0.484932	-0.172563	0	0	-0.431377	-0.0871688	-0.333659	0.532101	-0.0781656	0	0	-0.436759	0.229826	0.30295	-0.216663	-0.453015	-0.288587	1.75012	0.690927	0	0	0.465033	-0.365529	0.451227	1.00647	0.691352	0	0
1.41	-0.119981	1.29145	-1.43806	0.652516	1.01694	1.00754	0.212858	0.0797466	-0.107669	0.497862	-0.175094	0	0	-0.432356	-0.090489	-0.32848	0.560329	-0.0782515	0	0	-0.438738	0.230091	0.301761	-0.216753	-0.454083	-0.288027	1.75012	0.689079	0	0	0.465366	-0.365457	0.451918	1.0065	0.691467	0	0
1.42	-0.116692	1.28917	-1.43866	0.651682	1.00617	1.00646	0.204415	0.0770428	-0.125011	0.502801	-0.186121	0	0	-0.430154	-0.0956738	-0.322929	0.594819	-0.0792926	0	0	-0.441605	0.231561	0.302049	-0.216834	-0.455728	-0.287918	1.7509	0.688384	0	0	0.466032	-0.364829	0.452431	1.00626	0.692373	0	0
1.43	-0.122782	1.28706	-1.43128	0.65071	0.995722	1.00571	0.198189	0.0759224	-0.146226	0.499112	-0.207873	0	0	-0.423663	-0.103658	-0.317114	0.636892	-0.0816661	0	0	-0.445683	0.2355	0.305023	-0.217125	-0.458018	-0.28882	1.75249	0.68898	0	0	0.466861	-0.362746	0.452	1.00532	0.693158	0	0
1.44	-0.136915	1.28596	-1.41736	0.64955	0.985515	1.00529	0.195047	0.0773081	-0.168583	0.498826	-0.237709	0	0	-0.411405	-0.114054	-0.310998	0.68727	-0.0865956	0	0	-0.449869	0.241346	0.310244	-0.217607	-0.459953	-0.290771	1.7547	0.690557	0	0	0.467206	-0.359664	0.450291	1.004	0.693837	0	0
1.45	-0.153801	1.2868	-1.40261	0.648107	0.975479	1.00507	0.19768	0.0801591	-0.183212	0.512938	-0.26056	0	0	-0.39294	-0.124508	-0.303697	0.744115	-0.094604	0	0	-0.452783	0.246856	0.316354	-0.216983	-0.460888	-0.292172	1.75625	0.691851	0	0	0.466376	-0.357346	0.447521	1.00334	0.694504	0	0
1.46	-0.169494	1.28949	-1.39059	0.64641	0.965534	1.00495	0.206972	0.0836762	-0.182284	0.540689	-0.272121	0	0	-0.368991	-0.133827	-0.294783	0.80601	-0.107062	0	0	-0.453164	0.250833	0.320069	-0.212398	-0.461254	-0.289114	1.75468	0.694194	0	0	0.462776	-0.357538	0.442258	1.0041	0.695509	0	0
1.47	-0.181319	1.29382	-1.38293	0.644531	0.955451	1.00477	0.220602	0.0885515	-0.162541	0.577426	-0.270351	0	0	-0.340423	-0.141675	-0.284856	0.871013	-0.126611	0	0	-0.450939	0.25247	0.32178	-0.206534	-0.460288	-0.283872	1.75138	0.7037	0	0	0.457774	-0.360093	0.436984	1.00635	0.696656	0	0
1.48	-0.188686	1.29255	-1.37754	0.642747	0.94533	1.00507	0.224701	0.0957446	-0.134603	0.609126	-0.269613	0	0	-0.316212	-0.149398	-0.272296	0.93365	-0.149204	0	0	-0.45455	0.253778	0.322712	-0.202645	-0.459899	-0.280017	1.75097	0.705131	0	0	0.455018	-0.36461	0.435879	1.01059	0.694707	0	0
1.49	-0.194883	1.28775	-1.37077	0.64107	0.935084	1.00565	0.220291	0.104228	-0.109914	0.631313	-0.268995	0	0	-0.29457	-0.157598	-0.256882	0.993061	-0.172808	0	0	-0.460879	0.25572	0.322674	-0.200882	-0.458913	-0.2779	1.75237	0.706716	0	0	0.453832	-0.369284	0.436467	1.01466	0.692919	0	0
1.5	-0.203172	1.2821	-1.35985	0.639535	0.924722	1.00618	0.211541	0.112961	-0.0959844	0.644189	-0.260805	0	0	-0.273306	-0.166463	-0.238613	1.04867	-0.198327	0	0	-0.466839	0.258935	0.323337	-0.203167	-0.459997	-0.277326	1.75638	0.691178	0	0	0.456164	-0.374525	0.444869	1.0176	0.681405	0	0
1.51	-0.213824	1.27744	-1.34521	0.638162	0.914325	1.00652	0.202055	0.12182	-0.0895889	0.651798	-0.253021	0	0	-0.25179	-0.174324	-0.215727	1.09976	-0.208543	0	0	-0.470484	0.263125	0.323769	-0.207152	-0.459459	-0.27901	1.76082	0.688549	0	0	0.458397	-0.377407	0.450479	1.01884	0.677268	0	0
1.52	-0.227117	1.27524	-1.32749	0.636873	0.903909	1.00653	0.194594	0.13193	-0.0838606	0.659079	-0.241948	0	0	-0.228871	-0.180942	-0.190282	1.14756	-0.202497	0	0	-0.47036	0.267835	0.324154	-0.212178	-0.458801	-0.281132	1.76496	0.686421	0	0	0.460435	-0.379196	0.455464	1.01914	0.674761	0	0
1.53	-0.239479	1.27422	-1.31075	0.635628	0.893587	1.00643	0.188036	0.142317	-0.0759003	0.667519	-0.229611	0	0	-0.206022	-0.185637	-0.164423	1.19132	-0.18444	0	0	-0.468437	0.272089	0.323877	-0.216274	-0.458081	-0.282364	1.76791	0.684622	0	0	0.461664	-0.380348	0.458403	1.01918	0.673579	0	0
1.54	-0.247993	1.27333	-1.2982	0.634471	0.883457	1.00652	0.181161	0.150998	-0.0679236	0.676626	-0.215541	0	0	-0.184241	-0.187193	-0.139555	1.22937	-0.1603	0	0	-0.466681	0.2752	0.322994	-0.218729	-0.457256	-0.282711	1.76941	0.683087	0	0	0.461885	-0.380832	0.458553	1.01933	0.672962	0	0
1.55	-0.249871	1.27072	-1.29327	0.633413	0.873595	1.00715	0.170992	0.157039	-0.0622951	0.683355	-0.203646	0	0	-0.165307	-0.185515	-0.119326	1.26018	-0.139958	0	0	-0.467983	0.276655	0.322081	-0.219038	-0.45623	-0.282416	1.76966	0.68271	0	0	0.461102	-0.380459	0.455135	1.01988	0.673668	0	0
1.56	-0.244974	1.26688	-1.29686	0.632402	0.863986	1.00831	0.157668	0.160681	-0.0581423	0.686231	-0.200461	0	0	-0.148413	-0.180709	-0.10472	1.28483	-0.127349	0	0	-0.472296	0.275893	0.322787	-0.21865	-0.455173	-0.282793	1.76941	0.683565	0	0	0.461569	-0.379875	0.453658	1.02017	0.673035	0	0
1.57	-0.234185	1.26329	-1.30862	0.631352	0.854519	1.00972	0.143887	0.161851	-0.0558224	0.687936	-0.192849	0	0	-0.13236	-0.172958	-0.0954584	1.30491	-0.116196	0	0	-0.477078	0.272531	0.323506	-0.215932	-0.454855	-0.28095	1.7673	0.683059	0	0	0.460819	-0.379413	0.449823	1.02052	0.675372	0	0
1.58	-0.219463	1.26104	-1.3265	0.630242	0.845126	1.01113	0.130676	0.160997	-0.0543533	0.688028	-0.178006	0	0	-0.116259	-0.162319	-0.0888516	1.3213	-0.101166	0	0	-0.480772	0.266975	0.324174	-0.211286	-0.4542	-0.277548	1.76378	0.686755	0	0	0.457909	-0.378376	0.441393	1.02087	0.682508	0	0
